<?xml version="1.0" standalone="no"?>
<!DOCTYPE svg PUBLIC "-//W3C//DTD SVG 20010904//EN"
 "http://www.w3.org/TR/2001/REC-SVG-20010904/DTD/svg10.dtd">
<svg version="1.0" xmlns="http://www.w3.org/2000/svg"
 width="1545.000000pt" height="1545.000000pt" viewBox="0 0 1545.000000 1545.000000"
 preserveAspectRatio="xMidYMid meet">
<metadata>
Created by potrace 1.11, written by Peter Selinger 2001-2013
</metadata>
<g transform="translate(0.000000,1545.000000) scale(0.100000,-0.100000)"
fill="#000000" stroke="none">
<path d="M7455 13430 c-3 -4 -18 -7 -35 -6 -23 2 -30 -2 -32 -18 -2 -15 -10
-21 -25 -20 -13 0 -23 -5 -23 -12 0 -7 -6 -17 -14 -21 -8 -4 -15 -17 -18 -28
-2 -11 -12 -21 -23 -24 -25 -4 -36 -21 -29 -44 7 -22 -42 -71 -62 -63 -9 4
-14 -2 -14 -16 0 -23 -196 -225 -214 -220 -6 2 -8 0 -4 -4 8 -8 -37 -54 -53
-54 -6 0 -8 -4 -5 -8 3 -5 -14 -26 -37 -47 -23 -22 -41 -43 -39 -48 2 -5 -9
-7 -23 -5 -25 5 -29 0 -26 -33 1 -9 -8 -19 -20 -22 -11 -3 -18 -10 -15 -16 4
-6 -4 -9 -22 -7 -26 4 -28 2 -24 -25 4 -24 1 -28 -16 -24 -15 3 -19 -1 -15
-16 5 -16 1 -18 -24 -15 -27 3 -29 1 -25 -26 3 -21 0 -28 -12 -28 -9 0 -16 -7
-16 -16 0 -9 -6 -14 -12 -11 -24 8 -47 -11 -41 -34 5 -16 3 -20 -6 -15 -8 5
-14 0 -18 -13 -4 -17 -11 -21 -33 -17 -23 3 -27 1 -23 -15 5 -16 0 -19 -30
-19 -56 0 -80 14 -150 84 -36 36 -70 66 -76 66 -5 0 -16 6 -23 13 -21 20 -90
37 -156 37 -60 0 -162 -26 -162 -42 0 -4 -6 -8 -14 -8 -8 0 -61 -47 -118 -105
-56 -58 -109 -105 -116 -105 -7 0 -16 -8 -19 -17 -12 -31 -127 -144 -141 -138
-7 2 -10 0 -7 -5 3 -6 1 -10 -4 -10 -6 0 -11 -6 -11 -13 0 -17 -42 -57 -58
-57 -7 0 -15 -8 -19 -17 -9 -26 -44 -63 -60 -63 -8 0 -16 -8 -20 -17 -9 -26
-44 -63 -60 -63 -7 0 -13 -5 -13 -12 0 -17 -51 -68 -67 -68 -7 0 -18 -11 -23
-25 -5 -14 -24 -34 -42 -45 -18 -11 -35 -26 -38 -34 -3 -8 -129 -141 -282
-295 -319 -322 -320 -325 -322 -466 -1 -131 14 -155 209 -353 89 -89 159 -164
157 -167 -3 -3 -1 -5 5 -5 6 0 59 -46 117 -103 91 -88 106 -107 106 -135 0
-27 4 -32 25 -32 16 0 25 -6 25 -15 0 -8 -9 -15 -21 -15 -11 0 -17 -4 -14 -10
3 -5 2 -10 -3 -10 -5 0 -12 -9 -15 -20 -4 -15 -14 -20 -44 -22 -21 -1 -49 -3
-63 -4 -14 -1 -31 -3 -39 -3 -10 -1 -12 -10 -7 -35 4 -20 2 -37 -4 -41 -5 -3
-10 -15 -10 -26 0 -10 -4 -19 -10 -19 -5 0 -10 -6 -10 -14 0 -9 -12 -16 -27
-18 -25 -3 -28 -7 -25 -36 3 -26 -1 -34 -20 -41 -13 -6 -19 -10 -14 -10 5 -1
0 -9 -11 -18 -11 -10 -23 -26 -26 -37 -5 -12 -14 -17 -27 -13 -11 3 -20 1 -20
-5 0 -6 -10 -8 -23 -4 -18 4 -23 1 -23 -14 0 -11 6 -20 13 -20 7 0 13 -4 13
-10 0 -5 -4 -10 -10 -10 -5 0 -10 -7 -10 -15 0 -9 -10 -15 -26 -15 -17 0 -23
4 -19 13 4 6 0 4 -8 -5 -8 -10 -19 -18 -25 -18 -6 0 -9 -7 -6 -15 5 -12 -3
-15 -35 -15 -37 0 -41 -3 -42 -25 -1 -14 -3 -29 -4 -35 -1 -5 -3 -19 -4 -30
-1 -14 -8 -20 -23 -20 -39 0 -51 -14 -43 -50 6 -27 5 -32 -8 -27 -9 3 -18 -1
-21 -9 -3 -8 -12 -14 -21 -14 -8 0 -15 -9 -15 -20 0 -11 -5 -20 -11 -20 -5 0
-7 -4 -4 -10 5 -9 -23 -15 -48 -11 -4 1 -10 -6 -13 -14 -4 -8 -12 -15 -19 -15
-7 0 -12 -8 -11 -17 0 -12 -7 -19 -21 -21 -13 -2 -23 0 -23 5 0 5 -9 9 -20 10
-11 1 -20 -4 -20 -12 0 -9 -14 -15 -37 -17 -34 -3 -37 -5 -37 -37 0 -35 -39
-91 -63 -91 -16 0 -17 -34 -1 -59 9 -15 9 -23 -1 -35 -7 -8 -16 -15 -19 -14
-36 4 -50 -5 -62 -41 -11 -35 -16 -39 -43 -39 -35 1 -55 -21 -51 -58 2 -19 -1
-24 -12 -20 -8 3 -14 1 -14 -4 0 -6 -13 -10 -29 -10 -23 0 -28 -4 -24 -19 6
-24 -22 -51 -55 -51 -25 0 -27 -3 -27 -37 0 -37 -1 -38 -37 -41 -25 -2 -38 -8
-38 -18 0 -8 5 -14 10 -14 6 0 10 -7 10 -16 0 -11 -5 -14 -16 -10 -11 4 -15 2
-11 -7 3 -9 -5 -14 -26 -15 -39 -3 -56 -18 -50 -42 6 -22 -36 -82 -53 -76 -7
3 -14 -5 -16 -17 -3 -19 -9 -22 -46 -22 -44 0 -46 -2 -42 -58 1 -25 -1 -27
-25 -21 -14 3 -25 2 -23 -2 1 -5 -1 -23 -4 -39 -5 -23 -15 -34 -41 -43 -18 -6
-40 -12 -49 -12 -9 0 -19 -7 -22 -16 -4 -9 -13 -14 -21 -10 -10 4 -15 -1 -15
-15 0 -13 -8 -23 -20 -26 -15 -4 -19 -11 -15 -24 4 -11 2 -19 -3 -19 -5 0 -9
-8 -8 -17 0 -11 -11 -23 -30 -32 -20 -8 -34 -24 -40 -45 -8 -28 -13 -31 -46
-30 -21 0 -38 -4 -39 -10 -1 -6 -1 -23 -1 -38 -1 -16 -6 -28 -14 -28 -7 0 -15
-9 -19 -19 -3 -11 -15 -23 -26 -26 -10 -4 -19 -13 -19 -22 0 -10 -6 -14 -20
-10 -11 3 -18 1 -14 -4 7 -12 -12 -12 -35 0 -13 7 -17 5 -17 -10 0 -10 6 -19
13 -19 7 0 13 -7 13 -15 0 -8 -7 -15 -15 -15 -9 0 -12 -6 -9 -15 4 -9 0 -15
-10 -15 -9 0 -16 4 -16 9 0 9 -49 5 -59 -5 -2 -2 10 -9 27 -15 18 -6 32 -15
32 -19 0 -19 -47 -40 -87 -40 -42 0 -43 -1 -44 -32 -1 -18 -1 -36 0 -40 0 -5
-10 -8 -23 -8 -18 0 -25 -6 -28 -22 -2 -14 -10 -23 -19 -22 -11 1 -15 -5 -12
-17 4 -13 0 -19 -11 -19 -19 0 -59 -36 -69 -63 -4 -11 -17 -17 -35 -17 -28 0
-29 -1 -25 -41 3 -24 1 -44 -6 -48 -6 -4 -11 -21 -13 -39 -1 -20 -8 -33 -18
-34 -8 0 -20 -2 -27 -2 -6 -1 -15 -5 -20 -10 -4 -5 -3 -6 5 -2 7 4 15 0 19
-10 6 -17 -34 -57 -49 -48 -4 3 -8 0 -8 -6 0 -8 -11 -9 -32 -5 -26 5 -29 4
-15 -5 10 -6 17 -23 17 -40 0 -27 -2 -28 -45 -27 -36 2 -45 -1 -45 -14 0 -9
-6 -19 -14 -22 -9 -4 -12 -17 -9 -42 5 -52 -26 -81 -84 -80 -23 1 -40 -2 -37
-6 9 -15 -8 -59 -22 -59 -8 0 -14 -8 -15 -17 -2 -31 1 -97 5 -118 2 -11 0 -30
-5 -42 -6 -17 -5 -21 6 -16 9 3 15 -1 15 -10 0 -8 -5 -17 -10 -19 -10 -3 -12
-44 -9 -215 1 -66 2 -72 22 -75 16 -2 22 -10 22 -29 0 -21 3 -25 19 -21 16 4
18 1 14 -16 -4 -12 -2 -24 2 -27 4 -3 6 -24 3 -47 -4 -29 -3 -39 5 -34 7 4 12
14 12 22 0 8 5 14 11 14 7 0 9 9 5 24 -7 29 13 70 37 74 9 2 17 -2 17 -7 0
-14 55 -6 56 8 1 6 2 21 3 34 1 27 38 54 53 39 6 -6 16 -8 22 -6 15 6 50 -61
42 -81 -3 -9 -10 -14 -15 -10 -13 7 -23 -27 -17 -60 4 -20 1 -25 -9 -22 -7 3
-21 -1 -32 -9 -10 -9 -12 -13 -5 -9 15 8 16 -17 0 -33 -9 -9 -9 -12 2 -13 171
-6 270 -3 275 9 3 8 0 10 -8 6 -9 -5 -9 -4 0 6 8 9 8 20 1 42 -7 20 -7 33 0
40 12 12 4 48 -10 48 -6 0 -4 8 3 17 9 11 10 14 2 9 -9 -5 -11 -2 -7 8 3 9 10
16 14 16 4 0 7 8 6 18 -1 13 7 17 39 18 61 1 66 -3 59 -47 -5 -32 -4 -39 10
-39 10 0 16 -9 16 -25 0 -19 -5 -25 -22 -25 -16 0 -19 -3 -11 -11 14 -14 74
-18 90 -6 7 5 19 7 27 4 8 -3 20 1 27 9 10 12 9 13 -5 8 -18 -7 -21 8 -6 37 7
12 21 19 39 19 32 0 53 20 55 52 1 15 10 24 28 29 15 4 35 15 44 24 9 9 24 15
34 12 11 -3 16 2 16 17 -1 19 5 21 65 22 l67 2 -3 -47 c-2 -29 -8 -46 -17 -47
-7 -1 -23 -2 -36 -3 -13 0 -20 -5 -17 -11 10 -16 -15 -80 -30 -80 -7 0 -15 5
-17 11 -7 21 -40 -22 -34 -45 6 -25 -3 -42 -24 -41 -8 0 -22 -13 -30 -30 -18
-39 -22 -41 -69 -40 -22 0 -38 -1 -36 -3 2 -2 0 -14 -5 -26 -5 -13 -4 -30 3
-41 12 -22 18 -65 9 -65 -4 0 -7 -21 -7 -48 l0 -47 77 1 c60 1 78 -2 78 -12 0
-8 5 -14 10 -14 6 0 10 -7 10 -15 0 -8 6 -12 13 -9 7 2 21 -2 32 -10 17 -12
18 -19 9 -62 l-9 -49 -43 -1 c-44 -1 -44 -1 -38 30 4 18 3 26 -2 18 -6 -9 -18
-11 -35 -6 -25 6 -27 4 -27 -25 0 -24 4 -31 20 -31 16 0 19 -5 14 -29 -6 -27
-4 -28 21 -23 20 3 26 1 21 -7 -4 -6 -3 -11 2 -11 5 0 8 -33 6 -73 l-2 -72 31
2 c18 1 42 5 55 9 14 4 22 2 22 -5 0 -7 5 -9 10 -6 6 3 10 0 10 -9 0 -8 4 -16
10 -18 5 -1 11 -28 12 -59 2 -38 7 -55 15 -52 6 2 13 -3 15 -13 3 -16 4 -17
20 -1 18 19 38 22 38 7 0 -5 11 -10 24 -10 47 0 56 -9 56 -59 0 -44 -4 -50
-85 -136 -46 -49 -90 -90 -97 -90 -27 -2 -46 -17 -41 -33 4 -15 -60 -93 -85
-104 -4 -1 -17 -16 -30 -32 -12 -16 -82 -92 -155 -169 -72 -76 -133 -143 -135
-148 -2 -5 -15 -9 -28 -9 -15 0 -24 -6 -24 -15 0 -19 -7 -28 -83 -106 -31 -33
-57 -63 -57 -65 0 -5 -96 -106 -310 -326 -58 -59 -110 -108 -117 -108 -6 0
-15 -10 -18 -21 -11 -33 -115 -138 -131 -132 -22 8 -47 -17 -33 -33 8 -10 0
-20 -32 -44 -24 -17 -48 -42 -54 -55 -5 -12 -71 -87 -145 -164 -74 -78 -136
-146 -138 -150 -2 -5 208 -220 467 -477 258 -257 467 -472 464 -477 -3 -6 -2
-7 4 -4 11 7 696 -676 688 -686 -3 -4 -2 -5 2 -2 11 8 53 -37 53 -57 0 -11 7
-18 19 -18 11 0 21 -9 24 -21 3 -12 10 -19 15 -15 5 3 28 -15 52 -39 37 -37
41 -45 24 -45 -29 0 -56 -23 -49 -41 6 -17 115 -42 115 -27 0 5 11 14 25 20
13 6 27 19 31 30 3 10 10 16 15 13 5 -4 9 -1 9 5 0 6 3 9 8 6 4 -2 16 2 26 10
17 12 15 13 -20 8 -21 -2 -49 -6 -62 -9 -21 -3 -21 -2 -8 17 18 25 67 59 77
52 4 -2 5 4 2 14 -3 12 19 40 70 89 41 40 72 74 70 77 -6 6 56 51 70 51 7 0
12 7 12 16 0 9 34 52 76 95 136 141 253 265 260 276 4 6 12 7 19 3 9 -5 11 -4
6 4 -4 7 29 49 86 107 51 53 118 122 148 154 30 31 85 89 122 130 57 62 70 71
83 60 13 -11 15 -8 15 17 0 23 12 42 55 82 30 29 55 54 55 56 0 3 31 37 69 77
63 64 72 70 87 57 16 -13 16 -12 6 8 -10 19 -8 24 14 42 15 12 23 21 19 21 -5
0 32 40 80 89 49 49 93 87 99 84 5 -3 6 -1 2 6 -5 7 3 22 20 36 21 18 39 24
70 23 40 -2 42 -4 47 -38 2 -19 1 -37 -2 -40 -12 -10 -7 -58 6 -53 8 3 13 -2
13 -12 0 -15 7 -17 40 -12 22 3 38 2 35 -3 -3 -4 10 -6 29 -3 l34 4 -2 -48
c-2 -46 -3 -48 -34 -51 -30 -3 -31 -4 -14 -21 9 -10 40 -28 67 -41 28 -13 54
-30 58 -37 4 -7 14 -13 22 -13 8 0 22 -11 31 -25 9 -14 20 -22 25 -19 5 3 9 0
9 -6 0 -7 13 -29 30 -50 16 -20 35 -50 41 -66 6 -16 13 -23 16 -16 3 6 11 12
19 12 8 0 11 -6 7 -16 -5 -14 -3 -15 16 -5 12 7 19 17 15 22 -3 6 -3 20 0 32
4 17 13 22 43 24 32 1 40 -3 51 -25 8 -18 9 -29 1 -38 -6 -7 -8 -18 -4 -24 4
-6 1 -11 -6 -9 -29 3 -37 -2 -42 -26 -2 -14 -2 -23 1 -21 9 9 42 -14 42 -29 0
-8 7 -15 15 -15 8 0 15 7 15 16 0 11 6 15 20 11 11 -3 20 -1 20 3 0 5 12 6 28
4 15 -3 37 -5 50 -5 22 1 26 -6 23 -45 -2 -16 6 -23 31 -29 18 -4 36 -7 41 -6
8 1 11 -18 6 -34 -6 -22 -5 -110 2 -115 4 -3 4 -22 0 -43 -6 -22 -5 -37 0 -37
6 0 9 -6 8 -12 -4 -34 2 -58 16 -58 8 0 15 -6 15 -12 0 -9 18 -13 61 -11 58 1
61 0 57 -21 -5 -25 13 -45 53 -63 32 -13 48 -51 28 -64 -10 -6 -4 -9 18 -9 22
0 31 4 28 13 -3 6 7 25 21 40 19 21 34 28 53 25 25 -4 26 -2 23 29 -3 19 -10
33 -18 34 -8 1 -24 2 -36 2 -17 1 -25 9 -29 30 -13 56 -6 62 82 62 85 0 84 -1
81 63 -1 12 3 22 8 22 6 0 10 7 10 15 0 8 7 15 15 15 8 0 15 5 15 10 0 14 12
12 35 -6 18 -14 18 -16 4 -27 -13 -10 -6 -12 37 -10 29 0 58 4 63 8 6 3 11 2
11 -3 0 -14 40 -2 41 12 0 6 1 58 2 115 2 103 2 104 27 107 14 1 35 4 48 7 20
5 22 2 22 -28 0 -28 3 -33 16 -28 10 4 22 0 28 -9 13 -17 56 -30 56 -16 0 5
12 8 28 6 l27 -3 0 -198 c0 -150 3 -200 13 -206 7 -4 15 -25 18 -47 5 -31 3
-36 -6 -24 -10 13 -11 13 -8 0 3 -8 17 -14 34 -14 l29 0 5 -209 5 -209 118 1
c76 1 117 -2 117 -8 0 -7 -24 -11 -57 -11 -82 0 -62 -7 40 -14 48 -3 91 -7 95
-10 4 -2 27 -5 52 -7 25 -1 49 -5 55 -8 5 -3 26 -6 45 -8 19 -2 42 -6 50 -10
8 -3 21 -5 28 -4 6 1 12 -3 12 -9 0 -6 5 -8 10 -5 6 4 33 -1 60 -10 39 -13 68
-15 142 -9 166 13 436 7 528 -11 49 -10 4801 -5 4820 5 21 11 34 53 25 81 -4
11 -19 26 -34 34 l-28 14 -1 753 c-1 1119 -1 3192 0 4030 l1 737 24 6 c34 8
49 46 33 84 -6 16 -18 32 -26 35 -8 3 -136 6 -284 6 -149 1 -270 4 -270 9 0
20 44 53 66 48 13 -2 21 0 18 5 -3 5 -3 21 1 35 4 19 11 24 25 20 13 -3 20 0
20 9 0 8 6 14 13 13 32 -4 39 1 32 29 -5 24 -2 28 20 30 31 2 65 35 65 62 0
13 7 20 20 20 27 0 60 34 62 65 2 23 5 24 41 18 l39 -6 -4 44 c-3 40 -1 44 21
47 16 3 21 0 16 -8 -6 -9 -2 -9 15 0 12 7 19 17 16 26 -3 8 -1 14 5 14 5 0 7
11 3 25 -3 14 -2 25 4 25 5 0 7 12 4 26 -4 23 -8 26 -38 21 -20 -3 -34 -2 -34
4 0 6 -5 7 -10 4 -7 -4 -8 8 -4 36 l7 42 -36 -6 c-22 -3 -37 -2 -37 4 0 6 -4
7 -10 4 -5 -3 -10 1 -10 9 0 9 4 16 9 16 4 0 6 12 3 26 -4 24 -8 26 -44 20
l-40 -6 3 32 c4 45 -6 58 -46 58 -33 0 -34 1 -31 35 2 31 -1 36 -23 42 -14 4
-34 6 -45 5 -15 -1 -17 5 -14 33 4 38 -4 45 -52 45 -27 0 -29 2 -26 35 2 31
-1 36 -23 42 -14 4 -34 6 -44 5 -13 -1 -17 5 -15 22 4 29 -23 56 -57 56 -25 0
-27 3 -23 34 3 26 1 33 -11 28 -10 -4 -13 -1 -9 9 5 12 -2 14 -29 11 -32 -4
-34 -2 -32 20 5 31 -22 58 -56 58 -25 0 -27 3 -23 34 2 19 0 32 -4 30 -5 -3
-15 1 -23 9 -8 9 -24 13 -36 10 -20 -6 -21 -3 -18 38 l4 44 -43 -2 -44 -3 4
43 3 42 -40 0 c-40 0 -40 0 -40 38 0 39 -9 44 -68 37 -15 -1 -18 5 -17 27 4
50 2 53 -40 53 -27 0 -40 4 -40 14 0 7 -9 16 -20 19 -11 3 -23 13 -27 23 -9
25 -38 52 -59 56 -11 2 -20 11 -22 22 -5 23 -35 53 -58 58 -11 2 -20 11 -22
22 -5 23 -35 53 -58 58 -11 2 -20 11 -22 22 -5 23 -35 53 -59 58 -10 2 -19 13
-21 26 -2 12 -10 22 -18 22 -8 0 -14 6 -14 14 0 8 -10 16 -22 18 -15 2 -24 11
-26 26 -2 12 -10 22 -17 22 -8 0 -12 8 -10 18 2 13 -3 18 -23 17 -23 0 -27 4
-27 26 0 21 -3 25 -19 21 -15 -4 -18 -1 -13 11 4 12 -1 17 -21 19 -19 2 -28
10 -30 26 -2 12 -10 22 -19 22 -10 0 -14 6 -10 20 3 11 0 23 -5 27 -7 4 -8 1
-3 -6 5 -9 0 -12 -16 -9 -16 2 -25 11 -27 26 -3 20 -23 29 -55 23 -5 -1 -11 7
-14 18 -3 10 -14 22 -25 24 -11 3 -17 10 -13 16 3 6 -5 15 -19 21 -14 5 -26
16 -26 24 0 7 -9 16 -21 19 -12 3 -18 10 -14 16 3 6 -5 16 -19 23 -14 6 -26
17 -26 25 0 7 -7 13 -15 13 -9 0 -20 11 -25 25 -5 14 -15 24 -22 23 -7 -2 -12
3 -10 10 1 8 -6 16 -17 19 -21 5 -35 29 -26 44 4 5 -1 6 -10 3 -29 -11 -62 5
-71 33 -4 16 -7 31 -6 35 1 5 -1 7 -6 7 -39 -6 -72 20 -72 57 0 13 -3 23 -7
23 -37 -6 -78 23 -69 47 3 8 1 14 -5 14 -6 0 -7 6 -3 13 4 6 4 9 0 5 -18 -15
-66 14 -78 48 -7 21 -19 34 -29 34 -28 0 -51 30 -47 60 4 23 1 26 -22 22 -16
-2 -34 3 -44 14 -11 10 -16 28 -14 44 4 23 1 26 -22 22 -35 -5 -63 23 -58 58
4 23 1 26 -22 22 -35 -5 -63 23 -58 58 4 23 1 26 -22 22 -35 -5 -63 23 -58 58
4 23 1 26 -22 22 -35 -5 -63 23 -58 58 4 23 1 26 -22 22 -35 -5 -63 23 -58 58
4 23 1 26 -22 22 -35 -5 -63 23 -58 58 3 23 1 26 -18 22 -36 -7 -66 15 -62 46
3 24 0 27 -25 25 -33 -2 -62 35 -55 70 4 20 1 23 -21 20 -35 -5 -55 11 -57 44
-1 23 -6 29 -34 34 -39 8 -52 25 -47 60 3 24 0 26 -24 22 -31 -4 -73 31 -64
55 2 7 0 10 -5 7 -6 -3 -10 0 -10 8 0 10 -7 13 -20 10 -16 -4 -23 2 -35 31
-11 25 -26 41 -45 47 -18 7 -32 21 -39 40 -7 20 -21 33 -41 41 -22 7 -33 18
-37 39 -3 16 -9 27 -13 24 -4 -3 -11 2 -14 11 -3 8 -10 13 -15 10 -13 -8 -41
22 -41 44 0 16 -29 31 -65 34 -10 1 -11 6 -14 45 -1 18 -20 30 -60 36 -16 2
-17 5 -20 44 -1 18 -20 30 -59 35 -8 2 -16 10 -18 18 -5 39 -17 58 -35 59 -40
3 -44 4 -44 16 0 7 -9 18 -19 26 -20 15 -13 42 7 31 7 -4 9 -3 4 1 -4 5 -22 9
-40 9 -27 1 -32 5 -32 26 0 14 -6 29 -13 33 -7 5 -10 11 -8 15 2 4 -10 7 -27
7 -29 0 -32 3 -32 32 0 17 -4 31 -10 30 -5 -1 -9 3 -8 8 1 6 -12 10 -29 10
-27 0 -32 4 -35 29 -5 35 -21 51 -52 51 -23 0 -27 7 -33 56 -1 8 -9 16 -17 17
-46 5 -56 10 -53 27 2 10 -1 14 -7 10 -14 -8 -14 11 -1 36 11 20 -3 28 -15 9
-3 -5 -13 -10 -21 -10 -8 0 -13 4 -10 9 3 5 -2 8 -12 7 -10 0 -16 6 -16 16 1
10 -2 15 -7 12 -5 -3 -9 2 -9 10 0 8 5 18 10 21 19 12 11 26 -9 15 -25 -13
-44 -13 -36 1 4 6 0 9 -11 7 -14 -2 -18 2 -16 16 2 11 -1 15 -7 11 -13 -8 -14
10 -2 34 7 13 5 17 -9 17 -10 0 -16 -4 -14 -8 3 -4 -2 -8 -11 -8 -9 0 -13 5
-10 11 4 6 0 9 -11 7 -14 -2 -18 2 -16 16 2 11 -1 15 -7 11 -14 -8 -14 11 -1
36 11 20 -3 28 -15 9 -3 -5 -13 -10 -21 -10 -8 0 -12 5 -9 11 4 6 0 9 -11 7
-16 -2 -19 4 -19 38 0 34 -3 40 -17 36 -10 -2 -29 -1 -42 2 -22 5 -25 11 -23
46 2 35 0 39 -16 34 -10 -3 -29 -3 -42 0 -21 5 -24 12 -22 45 2 32 0 37 -15
33 -10 -2 -29 -2 -42 2 -20 5 -24 11 -22 44 1 37 1 37 -36 35 -35 -2 -38 0
-44 33 -4 24 -12 34 -25 34 -11 0 -19 4 -19 9 0 5 -8 8 -17 7 -15 -1 -18 7
-18 40 0 34 -3 40 -17 36 -22 -5 -68 6 -67 16 1 4 1 21 0 37 -1 29 -3 30 -51
32 -27 1 -52 -2 -55 -7z m-1321 -1151 c80 -81 88 -93 71 -99 -27 -11 -65 -48
-65 -64 0 -20 -37 -49 -51 -40 -8 4 -10 3 -5 -4 4 -7 3 -12 -3 -12 -5 0 -16
-12 -23 -27 -7 -16 -28 -34 -45 -42 -18 -8 -33 -21 -33 -30 0 -23 -31 -51 -57
-51 -17 0 -23 -6 -23 -23 0 -36 -34 -70 -60 -62 -19 6 -21 4 -15 -14 9 -28
-37 -75 -65 -66 -16 5 -20 2 -20 -19 0 -31 -24 -56 -56 -56 -19 0 -24 -5 -24
-24 0 -31 -25 -56 -56 -56 -19 0 -24 -5 -24 -24 0 -29 -22 -54 -56 -62 -14 -4
-24 -13 -24 -24 0 -30 -36 -63 -60 -55 -19 6 -21 4 -15 -14 9 -29 -34 -72 -65
-64 -20 5 -22 3 -17 -17 7 -28 -35 -74 -63 -67 -14 4 -18 0 -15 -15 5 -26 -40
-72 -64 -65 -14 3 -17 0 -14 -14 9 -31 -26 -56 -82 -58 -15 -1 -17 -3 -6 -10
8 -5 11 -16 7 -29 -6 -18 -2 -21 31 -24 35 -3 38 -5 39 -36 1 -40 1 -39 44
-44 32 -4 35 -7 38 -41 3 -31 7 -37 28 -38 13 -1 30 -2 37 -3 6 0 14 -19 17
-41 5 -37 7 -39 40 -40 22 0 34 -4 33 -12 -2 -7 2 -13 7 -13 6 0 10 -7 10 -16
0 -8 -4 -12 -10 -9 -6 3 -7 -1 -4 -9 6 -15 29 -21 62 -17 21 3 35 -41 22 -73
-9 -25 -14 -28 -45 -24 -35 4 -35 4 -36 -37 -1 -22 -1 -46 0 -52 1 -7 -7 -13
-18 -13 -32 0 -50 -11 -44 -26 3 -8 -1 -14 -11 -14 -9 0 -16 -5 -16 -12 0 -6
-2 -9 -6 -6 -3 3 -21 2 -41 -2 -33 -8 -38 -6 -89 48 -30 31 -53 61 -50 68 3 8
-1 11 -10 7 -10 -3 -25 7 -42 28 -15 19 -40 45 -55 59 -16 14 -98 93 -183 176
-179 176 -180 178 -107 254 26 28 53 50 60 50 7 0 12 4 11 8 -2 5 48 60 109
122 102 102 114 111 130 99 17 -13 17 -12 4 4 -13 16 -11 22 22 54 32 33 38
35 54 22 17 -13 17 -13 4 4 -13 16 -11 22 22 55 29 28 39 34 49 24 7 -7 16
-12 22 -12 5 0 1 7 -10 14 -18 14 -18 16 18 52 33 34 39 36 55 23 17 -13 17
-13 4 4 -13 16 0 32 149 182 90 90 167 162 172 159 5 -3 7 -1 6 4 -3 11 337
362 367 380 11 6 26 12 34 12 7 0 54 -41 105 -91z"/>
<path d="M5276 10541 c-3 -5 1 -11 9 -15 15 -6 29 7 18 18 -9 9 -21 8 -27 -3z"/>
<path d="M3980 9269 c0 -5 5 -7 10 -4 6 3 10 8 10 11 0 2 -4 4 -10 4 -5 0 -10
-5 -10 -11z"/>
<path d="M2455 7660 c-3 -5 -1 -10 4 -10 6 0 11 5 11 10 0 6 -2 10 -4 10 -3 0
-8 -4 -11 -10z"/>
<path d="M2023 7253 c-19 -7 -16 -20 6 -26 12 -3 18 0 17 9 -3 18 -9 22 -23
17z"/>
<path d="M1975 7070 c3 -5 8 -10 11 -10 2 0 4 5 4 10 0 6 -5 10 -11 10 -5 0
-7 -4 -4 -10z"/>
<path d="M5526 2781 c-4 -5 -2 -12 3 -15 5 -4 12 -2 15 3 4 5 2 12 -3 15 -5 4
-12 2 -15 -3z"/>
<path d="M5540 2740 c0 -5 5 -10 10 -10 6 0 10 5 10 10 0 6 -4 10 -10 10 -5 0
-10 -4 -10 -10z"/>
<path d="M5613 2681 c-1 -11 5 -22 12 -25 21 -8 29 12 11 29 -19 19 -21 19
-23 -4z"/>
<path d="M7028 1803 c6 -2 18 -2 25 0 6 3 1 5 -13 5 -14 0 -19 -2 -12 -5z"/>
</g>
</svg>
